<?xml version="1.0" encoding="utf-8"?>
<!-- Generator: Adobe Illustrator 22.1.0, SVG Export Plug-In . SVG Version: 6.00 Build 0)  -->
<svg version="1.1" xmlns="http://www.w3.org/2000/svg" xmlns:xlink="http://www.w3.org/1999/xlink" x="0px" y="0px"
	 viewBox="0 0 30.7 44" style="enable-background:new 0 0 30.7 44;" xml:space="preserve">
<style type="text/css">
	.st0{fill:#FFFFFF;}
	.st1{fill:#C30009;}
</style>
<g id="Layer_2">
	<g>
		<g>
			<g id="XMLID_1_">
				<g>
					<path d="M9.2,42.6C8.8,43.3,8,44,6.6,44c-0.9,0-1.6-0.3-2.1-0.8c-0.8-0.8-0.9-2.1-0.9-2.2c0,0,0-10.6,0-12.8
						c-0.4,0.3-0.8,0.5-1.5,0.5c-1.7,0-2.1-1.5-2.2-2.4l0.1-12.8c0-1.7,1.7-3,4.5-3.5C5.4,10,6.3,9.9,7,9.9c0.6,0.3,1.3,0.5,2.1,0.5
						c0.8,0,1.5-0.2,2.1-0.6c0.6,0.1,1.3,0.1,2.1,0.2L4.9,23.7l13.5,0c0,1.6,0,2.7,0,2.7c0,0.8-0.5,2.3-2.2,2.3
						c-0.7,0-1.1-0.2-1.5-0.5c0,2.3,0,12.8,0,12.8c0,0.2,0,1.4-0.9,2.2c-0.5,0.5-1.2,0.8-2.1,0.8C10.4,44,9.6,43.3,9.2,42.6z"/>
					<path d="M9.1,1.7c2.4,0,4.4,2,4.4,4.4c0,1.6-0.9,3.1-2.3,3.8c-0.9-0.1-1.6-0.1-1.7-0.1H8.8C8.8,9.8,8,9.8,7,9.9
						C5.7,9.1,4.7,7.7,4.7,6C4.7,3.6,6.7,1.7,9.1,1.7z"/>
					<path d="M4.9,23.7l8.4-13.7c0.2,0,0.4,0.1,0.6,0.1c2.8,0.5,4.5,1.8,4.5,3.5c0,0,0,6.4,0,10.1L4.9,23.7z"/>
					<path d="M18.4,13.6c0-1.7-1.7-2.9-4.5-3.5c-0.2,0-0.4-0.1-0.6-0.1L16,5.7l0.8-1.3l12.1,19.4H18.4C18.4,20,18.4,13.6,18.4,13.6z
						"/>
					<path d="M8.8,9.8h0.7c0.1,0,0.7,0,1.7,0.1c-0.6,0.4-1.4,0.6-2.1,0.6c-0.8,0-1.5-0.2-2.1-0.5C8,9.8,8.8,9.8,8.8,9.8z"/>
				</g>
				<g>
				</g>
			</g>
		</g>
	</g>
</g>
<g id="Layer_1">
	<g>
		<g>
			<g id="XMLID_2_">
				<g>
					<path class="st0" d="M10.9,0.8c2,0,3.6,1.6,3.6,3.6s-1.6,3.6-3.6,3.6S7.3,6.3,7.3,4.4S8.9,0.8,10.9,0.8z"/>
					<path class="st0" d="M18,26.3c-1.3,0-1.5-1-1.5-1.1v-3.1l2.8,0l0,2.7C19.4,24.9,19.3,26.3,18,26.3z"/>
					<path class="st0" d="M5.4,14.7v10.4c0,0.2-0.3,1.1-1.5,1.1c-1.3,0-1.4-1.4-1.4-1.6l0-12.7c0-1.8,2.9-2.5,3.8-2.7
						c1.9-0.4,4.1-0.4,4.2-0.4h0.7c0,0,1.6,0,3.3,0.3L6.7,22.1H6.2v-7.3H5.4z"/>
					<path class="st0" d="M15.7,25.5v13.8c0,0,0,1-0.6,1.7c-0.4,0.4-0.9,0.5-1.5,0.5c-2.1,0-2.2-1.8-2.2-2V27.2h-0.8v12.4
						c0,0.2-0.1,2-2.2,2c-0.6,0-1.1-0.2-1.5-0.5c-0.6-0.6-0.6-1.6-0.6-1.7v-14v-0.2v-3.1h0.4h9v3.1V25.5z"/>
					<path class="st1" d="M20.2,21.1c0,0.3,0,0.7,0,1h-0.8v-1H20.2z"/>
					<path class="st1" d="M20.2,20.2c0,0.3,0,0.6,0,0.9h-0.8l0-0.9C19.6,20.2,19.9,20.2,20.2,20.2z"/>
					<path class="st0" d="M19.5,15.9v-5.5c0.4,0.5,0.6,1,0.6,1.6c0,0,0,4.5,0,8.2c-0.3,0-0.5,0-0.8,0v-1.3c0.2-0.2,0.3-0.5,0.3-0.8
						c0-0.3-0.1-0.6-0.3-0.8v-1.4H19.5z"/>
					<path d="M19.4,18.9l0-1.6c0.2,0.2,0.3,0.5,0.3,0.8C19.7,18.5,19.6,18.7,19.4,18.9z"/>
					<path d="M19.5,9.7v0.6c-0.2-0.2-0.4-0.4-0.7-0.6H19.5z"/>
					<path class="st0" d="M19.5,10.4V9.7h-0.7c-0.5-0.4-1.1-0.6-1.8-0.9c0.7-1.2,1.3-2.1,1.6-2.6c1.2,2,7.3,11.7,8.6,13.9
						c-1.1,0-4,0-7.1,0c0-3.7,0-8.2,0-8.2C20.1,11.4,19.9,10.9,19.5,10.4z"/>
					<polygon class="st1" points="19.4,21.1 19.4,22.1 16.5,22.1 16.5,21.1 					"/>
					<path d="M19.3,12l0,3.9h-1.7V9.9C18.5,10.4,19.3,11,19.3,12z"/>
					<path d="M18.5,19.3c-0.6,0-1.1-0.5-1.1-1.1c0-0.6,0.5-1.1,1.1-1.1c0.3,0,0.6,0.1,0.8,0.3l0,1.6C19.1,19.1,18.9,19.3,18.5,19.3z
						"/>
					<path class="st1" d="M19.4,21.1l-2.8,0v-0.9c0.9,0,1.9,0,2.8,0L19.4,21.1z"/>
					<path class="st1" d="M18.6,4.5l-2.5,4.1c-0.1,0-0.3-0.1-0.4-0.1c-0.2,0-0.4-0.1-0.6-0.1L17.8,4l0.8-1.3l12,19.4H20.2
						c0-0.3,0-0.6,0-1H29L18.6,4.5z"/>
					<path class="st1" d="M16.1,8.6l2.5-4.1L29,21.1h-8.8c0-0.3,0-0.6,0-0.9c3.1,0,6,0,7.1,0C25.9,18,19.9,8.3,18.6,6.3
						c-0.3,0.5-0.9,1.4-1.6,2.6C16.7,8.8,16.4,8.7,16.1,8.6z"/>
					<path d="M17.6,9.9V9.7h1.2c0.3,0.2,0.5,0.4,0.7,0.6v5.5h-0.2l0-3.9C19.3,11,18.5,10.4,17.6,9.9z"/>
					<path class="st0" d="M17.6,9.7v0.2c-0.4-0.2-0.7-0.3-1-0.4c0.1-0.3,0.3-0.5,0.4-0.7c0.7,0.2,1.3,0.5,1.8,0.9H17.6z"/>
					<path class="st0" d="M10.1,20.2c1-1.6,4.3-6.9,6.5-10.6c0.3,0.1,0.7,0.2,1,0.4v5.9h1.7v1.4c-0.2-0.2-0.5-0.3-0.8-0.3
						c-0.6,0-1.1,0.5-1.1,1.1c0,0.6,0.5,1.1,1.1,1.1c0.3,0,0.6-0.1,0.8-0.3v1.3c-0.9,0-1.9,0-2.8,0v-5.3h-0.8v5.3
						C13.2,20.2,11,20.2,10.1,20.2z"/>
					<polygon points="16.5,25.1 16.5,25.5 15.7,25.5 15.7,25.2 					"/>
					<polygon points="16.5,22.1 16.5,25.1 15.7,25.2 15.7,22.1 					"/>
					<rect x="15.7" y="21.1" class="st1" width="0.8" height="0.9"/>
					<path class="st1" d="M16.5,20.2v0.9h-0.8v-0.9C16,20.2,16.3,20.2,16.5,20.2z"/>
					<path class="st0" d="M16.5,14.9v5.3c-0.3,0-0.5,0-0.8,0v-5.3H16.5z"/>
					<path class="st1" d="M17,8.8c-0.1,0.2-0.3,0.5-0.4,0.7c-0.4-0.1-0.7-0.2-1-0.2l0.4-0.7C16.4,8.7,16.7,8.8,17,8.8z"/>
					<path class="st1" d="M14.6,9.2l0.5-0.8c0.2,0,0.4,0.1,0.6,0.1c0.1,0,0.3,0.1,0.4,0.1l-0.4,0.7c0,0-0.1,0-0.1,0
						C15.2,9.3,14.9,9.2,14.6,9.2z"/>
					<path class="st1" d="M8.4,21.1h7.3v0.9h-9l7.9-12.9c0.3,0,0.6,0.1,0.9,0.1c0,0,0.1,0,0.1,0L8.4,21.1z"/>
					<rect x="10.6" y="39.6" width="0.8" height="0.3"/>
					<rect x="10.6" y="27.2" width="0.8" height="12.4"/>
					<path d="M13,8.2c-0.6,0.4-1.4,0.6-2.1,0.6c-0.8,0-1.5-0.2-2.1-0.5c1-0.1,1.8-0.1,1.8-0.1h0.7C11.4,8.1,12.1,8.1,13,8.2z"/>
					<path class="st1" d="M10.1,20.2c0.9,0,3.1,0,5.7,0v0.9H8.4l7.3-11.8c0.2,0.1,0.6,0.1,1,0.2C14.3,13.3,11,18.6,10.1,20.2z"/>
					<path d="M10.9,7.9c2,0,3.6-1.6,3.6-3.6s-1.6-3.6-3.6-3.6S7.3,2.4,7.3,4.4S8.9,7.9,10.9,7.9z M8.8,8.2C7.4,7.4,6.5,6,6.5,4.4
						C6.5,2,8.5,0,10.9,0c2.4,0,4.4,2,4.4,4.4c0,1.6-0.9,3.1-2.3,3.8c-0.9-0.1-1.6-0.1-1.7-0.1h-0.7C10.6,8.1,9.8,8.1,8.8,8.2z"/>
					<path d="M6.2,25.2v0.2H5.4v-0.2c0,0,0,0,0,0L6.2,25.2z"/>
					<path d="M5.4,25.2V14.7h0.8v7.3v3.1L5.4,25.2C5.4,25.1,5.4,25.1,5.4,25.2z"/>
					<path d="M10.6,8.9c0,0-2.3,0.1-4.2,0.4C5.6,9.5,2.6,10.1,2.6,12l0,12.7c0,0.2,0.1,1.6,1.4,1.6c1.2,0,1.5-0.9,1.5-1.1v0.2h0.8
						v14c0,0,0,1,0.6,1.7c0.3,0.4,0.9,0.5,1.5,0.5c2.1,0,2.2-1.8,2.2-2v0.3h0.8v-0.3c0,0.2,0.1,2,2.2,2c0.6,0,1.1-0.2,1.5-0.5
						c0.6-0.6,0.6-1.6,0.6-1.7V25.5h0.8v-0.4c0,0.1,0.2,1.1,1.5,1.1c1.3,0,1.4-1.4,1.4-1.5l0-2.7h0.8c0,1.5,0,2.7,0,2.7
						c0,0.8-0.5,2.3-2.2,2.3c-0.7,0-1.1-0.2-1.5-0.5c0,2.3,0,12.8,0,12.8c0,0.2,0,1.4-0.9,2.2c-0.5,0.5-1.2,0.8-2.1,0.8
						c-1.5,0-2.2-0.7-2.6-1.4c-0.4,0.8-1.2,1.4-2.6,1.4c-0.9,0-1.6-0.3-2.1-0.8c-0.8-0.9-0.9-2.1-0.9-2.2c0,0,0-10.6,0-12.8
						c-0.3,0.3-0.8,0.5-1.5,0.5c-1.7,0-2.1-1.5-2.2-2.4l0-12.8c0-1.7,1.7-3,4.5-3.5C7.2,8.4,8,8.3,8.8,8.2c0.6,0.3,1.3,0.5,2.1,0.5
						c0.8,0,1.5-0.2,2.1-0.6c0.6,0.1,1.3,0.1,2.1,0.2l-0.5,0.8c-1.7-0.2-3.3-0.3-3.3-0.3H10.6z"/>
				</g>
				<g>
				</g>
			</g>
		</g>
	</g>
</g>
</svg>
