<?xml version="1.0" encoding="utf-8"?>
<!-- Generator: Adobe Illustrator 12.0.1, SVG Export Plug-In . SVG Version: 6.00 Build 51448)  -->
<!DOCTYPE svg PUBLIC "-//W3C//DTD SVG 1.1//EN" "http://www.w3.org/Graphics/SVG/1.1/DTD/svg11.dtd" [
	<!ENTITY ns_svg "http://www.w3.org/2000/svg">
	<!ENTITY ns_xlink "http://www.w3.org/1999/xlink">
]>
<svg  version="1.1" id="Layer_1" xmlns="&ns_svg;" xmlns:xlink="&ns_xlink;" width="28.873" height="60.363"
	 viewBox="0 0 28.873 60.363" overflow="visible" enable-background="new 0 0 28.873 42.363" xml:space="preserve">
<g>
	<g>
		<g>
			<path d="M4.526,8.504c-2.806,0.511-4.481,1.808-4.481,3.467L0,24.731c0.019,0.818,0.495,2.345,2.165,2.345
				c0.675,0,1.135-0.228,1.49-0.513c0,2.249,0,12.787,0,12.795c0,0.157,0.028,1.376,0.856,2.219
				c0.512,0.521,1.209,0.786,2.072,0.786c1.454,0,2.209-0.694,2.616-1.442c0.407,0.748,1.163,1.442,2.617,1.442l0,0
				c0.863,0,1.561-0.265,2.073-0.786c0.83-0.844,0.858-2.064,0.858-2.226c0-0.008,0-10.537,0-12.787
				c0.354,0.285,0.812,0.512,1.487,0.512c1.669,0,2.146-1.526,2.165-2.333c0-0.012-0.045-12.772-0.045-12.772
				c0-1.659-1.676-2.956-4.481-3.467c-1.994-0.361-4.211-0.409-4.305-0.411H8.838C8.737,8.096,6.519,8.144,4.526,8.504z
				 M0.854,11.971c0-1.832,2.921-2.507,3.816-2.67c1.928-0.349,4.153-0.397,4.176-0.398h0.712c0.014,0,2.24,0.049,4.168,0.398
				c0.895,0.163,3.815,0.838,3.815,2.67l0.045,12.764c-0.004,0.146-0.083,1.53-1.354,1.53c-1.298,0-1.475-1.019-1.491-1.135
				l-0.807,0.052v14.16c0,0.016,0.004,1.031-0.629,1.671c-0.354,0.357-0.856,0.539-1.491,0.539c-2.097,0-2.207-1.75-2.212-1.95
				l-0.81,0.001c-0.005,0.199-0.114,1.949-2.21,1.949c-0.635,0-1.137-0.182-1.491-0.539c-0.632-0.64-0.628-1.654-0.628-1.665V25.183
				l-0.806-0.052c-0.017,0.116-0.195,1.135-1.493,1.135c-1.271,0-1.35-1.385-1.355-1.543L0.854,11.971z"/>
		</g>
		<g>
			<rect x="3.654" y="14.721" width="0.81" height="10.641"/>
		</g>
		<g>
			<rect x="13.933" y="14.856" width="0.811" height="10.643"/>
		</g>
		<g>
			<rect x="8.793" y="27.212" width="0.81" height="12.717"/>
		</g>
	</g>
	<g>
		<polygon fill="#FFFFFF" enable-background="new    " points="27.172,21.133 16.823,4.483 6.586,21.125 		"/>
		<path fill="#C30009" d="M16.018,3.988L4.896,22.069l23.977,0.01L16.819,2.686L16.018,3.988z M16.827,6.28
			c1.243,2,7.275,11.704,8.646,13.908c-2.606-0.001-14.604-0.005-17.195-0.006C9.628,17.984,15.594,8.284,16.827,6.28z"/>
	</g>
	<g>
		<rect x="15.845" y="9.721" width="1.891" height="6.164"/>
	</g>
	<circle cx="16.76" cy="18.137" r="1.126"/>
	<g>
		<path d="M4.736,4.366c0,2.407,1.958,4.366,4.366,4.366c2.406,0,4.364-1.958,4.364-4.366S11.508,0,9.102,0
			C6.695,0,4.736,1.958,4.736,4.366z M5.546,4.366c0-1.961,1.595-3.556,3.556-3.556c1.959,0,3.554,1.595,3.554,3.556
			s-1.595,3.556-3.554,3.556C7.141,7.922,5.546,6.327,5.546,4.366z"/>
	</g>
</g>
</svg>
