<?xml version="1.0" encoding="utf-8"?>
<!-- Generator: Adobe Illustrator 12.0.1, SVG Export Plug-In . SVG Version: 6.00 Build 51448)  -->
<!DOCTYPE svg PUBLIC "-//W3C//DTD SVG 1.1//EN" "http://www.w3.org/Graphics/SVG/1.1/DTD/svg11.dtd" [
	<!ENTITY ns_svg "http://www.w3.org/2000/svg">
	<!ENTITY ns_xlink "http://www.w3.org/1999/xlink">
]>
<svg  version="1.1" id="Layer_1" xmlns="&ns_svg;" xmlns:xlink="&ns_xlink;" width="35.543" height="60.087"
	 viewBox="0 0 35.543 60.087" overflow="visible" enable-background="new 0 0 35.543 41.087" xml:space="preserve">
<g>
	<g>
		<path fill="#C29054" enable-background="new    " d="M15.877,4.054c0,0,0.744-3.392,1.738-3.604
			c0.992-0.213,1.346,3.189,1.346,3.189s1.773-1.843,2.977-2.197c1.205-0.354,2.199-0.07,1.277,0.993
			c-0.922,1.062-2.014,4.46-1.986,6.096c0.072,3.898,3.734,5.19,5.934,6.647c6.643,4.402,7.922,8.644,7.922,13.365
			c0,6.883-6.721,12.086-17.258,12.086c-11.766,0-17.367-6.162-17.367-12.463c0-5.457,2.982-9.528,7.096-11.867
			c4.436-2.525,6.658-3.373,8.5-4.791c1.842-1.417-1.914-5.459-3.473-6.521c-1.244-0.849-1.205-0.993-3.332-1.772
			c0,0,1.777-1.632,3.615-1.063c2.193,0.678,4.111,3.261,4.111,3.261"/>
		<path d="M15.599,3.285c-0.731-0.641-1.627-1.273-2.597-1.573c-2.066-0.639-3.981,1.09-4.062,1.164l-0.556,0.51l0.708,0.259
			c1.667,0.611,1.93,0.799,2.632,1.3l0.599,0.42c1.269,0.865,3.724,3.506,3.769,5.053c0.009,0.321-0.092,0.552-0.317,0.725
			c-1.063,0.819-2.299,1.463-4.009,2.355L7.328,15.9C2.671,18.547,0,23.018,0,28.166c0,6.432,5.512,12.922,17.827,12.922
			c10.432,0,17.717-5.158,17.717-12.545c0-4.343-0.984-9.014-8.127-13.748l-1.307-0.792c-2.047-1.188-4.367-2.535-4.422-5.481
			c-0.025-1.529,1.043-4.828,1.874-5.786c0.605-0.698,0.522-1.17,0.347-1.443c-0.307-0.479-1.092-0.587-2.1-0.292
			c-0.856,0.252-1.866,1.092-2.522,1.695c-0.157-0.905-0.463-2.11-1.048-2.535L17.519,0C16.546,0.208,15.923,2.036,15.599,3.285z
			 M17.711,0.898c0.258,0.118,0.656,1.474,0.793,2.788l0.103,0.982l0.686-0.711c0.47-0.489,1.886-1.813,2.775-2.076
			c0.612-0.18,0.962-0.124,1.053-0.077c-0.029,0.021-0.077,0.126-0.252,0.329c-0.979,1.127-2.1,4.524-2.1,6.334
			c0,0.024,0,0.047,0.001,0.07c0.063,3.465,2.733,5.015,4.879,6.26l1.26,0.763c6.404,4.244,7.717,8.259,7.717,12.982
			c0,6.846-6.908,11.627-16.799,11.627c-11.68,0-16.908-6.029-16.908-12.004c0-4.878,2.438-8.951,6.863-11.467l4.408-2.385
			c1.752-0.914,3.017-1.574,4.145-2.442c0.443-0.341,0.676-0.829,0.676-1.415c0-0.021,0-0.043-0.001-0.064
			c-0.061-2.109-3.007-4.993-4.169-5.785l-0.583-0.409c-0.598-0.427-0.975-0.677-2.05-1.106c0.61-0.376,1.562-0.799,2.521-0.502
			c2.021,0.625,3.86,3.071,3.878,3.096l0.737-0.548c-0.034-0.046-0.406-0.532-0.982-1.127C16.728,2.44,17.354,0.975,17.711,0.898z"
			/>
	</g>
	<g>
		<path fill="#FEE84C" enable-background="new    " d="M22.737,6.51c-0.035-0.319-0.213-0.797-1.754-0.567
			c-1.836,0.274-5.572,1.164-6.398,1.577c-0.744,0.373-1.01,0.799-0.727,1.223c0.283,0.426,1.418,0.497,1.418,0.497
			s-1.062,0.531-0.869,1.046c0.221,0.581,1.035,0.581,2.996,0.159C18.545,10.198,21,9.665,22.081,9.31
			c1.082-0.354,1.227-1.097,1.17-1.364c-0.096-0.463-1.17-0.532-1.17-0.532S22.772,6.828,22.737,6.51z"/>
		<path d="M20.916,5.488c-1.727,0.258-5.607,1.156-6.537,1.621c-0.605,0.304-0.952,0.647-1.059,1.051l0.156,0.838
			c0.16,0.24,0.448,0.386,0.745,0.49c-0.165,0.193-0.3,0.409-0.3,0.662c0,0.096,0.017,0.194,0.055,0.297
			c0.392,1.032,1.767,0.824,3.523,0.447c1.538-0.332,3.701-0.811,4.725-1.147c1.124-0.368,1.496-1.159,1.496-1.692
			c0-0.073-0.007-0.142-0.021-0.204c-0.078-0.379-0.4-0.596-0.743-0.724c0.133-0.194,0.241-0.396,0.241-0.596
			c0-0.024-0.002-0.048-0.004-0.071l-0.398-0.744C22.419,5.425,21.822,5.353,20.916,5.488z M14.836,10.122
			c0.035-0.067,0.352-0.324,0.646-0.472l1.504-0.759l-1.681-0.11c-0.45-0.029-0.978-0.175-1.065-0.293
			c-0.026-0.113,0.036-0.299,0.551-0.557c0.717-0.358,4.345-1.247,6.261-1.534c0.896-0.133,1.144,0.015,1.184,0.046
			c0,0,0.017,0.042,0.03,0.077c-0.05,0.112-0.268,0.361-0.481,0.542l-0.861,0.732l1.128,0.077c0.313,0.021,0.695,0.126,0.77,0.212
			c-0.002,0.065-0.099,0.533-0.882,0.789c-1.097,0.361-3.758,0.934-4.632,1.122C16.73,10.119,14.978,10.496,14.836,10.122z
			 M23.194,6.459l-0.01-0.088L23.194,6.459z M23.194,6.459L23.194,6.459L23.194,6.459L23.194,6.459z"/>
	</g>
	<g>
		<rect x="18.113" y="4.706" transform="matrix(-0.2455 -0.9694 0.9694 -0.2455 15.0433 28.3965)" width="0.919" height="7.277"/>
	</g>
	<g>
		<path d="M17.651,36.96v-2.027c-1.01-0.127-1.826-0.352-2.457-0.674c-0.631-0.324-1.176-0.846-1.635-1.57
			c-0.457-0.721-0.725-1.604-0.799-2.645l2.027-0.387c0.156,1.08,0.432,1.875,0.828,2.381c0.566,0.717,1.244,1.113,2.035,1.195
			v-6.322c-0.822-0.215-1.668-0.564-2.531-1.049c-0.641-0.357-1.137-0.852-1.48-1.484c-0.348-0.635-0.521-1.355-0.521-2.162
			c0-1.43,0.506-2.59,1.52-3.478c0.676-0.597,1.68-0.962,3.014-1.097v-0.953h1.191v0.953c1.164,0.114,2.088,0.458,2.773,1.034
			c0.873,0.734,1.4,1.741,1.578,3.021l-2.057,0.328c-0.119-0.799-0.365-1.412-0.744-1.838c-0.377-0.428-0.895-0.708-1.551-0.845
			v5.789c1.014,0.266,1.684,0.469,2.01,0.611c0.627,0.275,1.137,0.611,1.531,1.006s0.699,0.863,0.91,1.406
			c0.213,0.545,0.318,1.133,0.318,1.766c0,1.395-0.443,2.557-1.328,3.486c-0.887,0.932-2.035,1.432-3.441,1.498v2.057H17.651z
			 M17.651,19.312c-0.777,0.119-1.389,0.433-1.834,0.938c-0.447,0.508-0.672,1.109-0.672,1.802c0,0.686,0.191,1.26,0.57,1.723
			c0.379,0.461,1.023,0.809,1.936,1.045V19.312z M18.842,33.234c0.783-0.098,1.432-0.434,1.945-1.016
			c0.512-0.58,0.768-1.297,0.768-2.152c0-0.73-0.182-1.314-0.549-1.758c-0.365-0.441-1.086-0.803-2.164-1.084V33.234z"/>
	</g>
	<text x="0" y="56">tt</text>
</g>
</svg>
