<?xml version="1.0" encoding="utf-8"?>
<!-- Generator: Adobe Illustrator 22.1.0, SVG Export Plug-In . SVG Version: 6.00 Build 0)  -->
<svg version="1.1" id="Layer_1" xmlns="http://www.w3.org/2000/svg" xmlns:xlink="http://www.w3.org/1999/xlink" x="0px" y="0px"
	 viewBox="0 0 35.5 60.1" style="enable-background:new 0 0 35.5 60.1;" xml:space="preserve">
<style type="text/css">
	.st0{fill:#FFFFFF;stroke:#1D1D1B;stroke-miterlimit:10;stroke-dasharray:2,1;}
	.st1{fill:#FFFFFF;stroke:#000000;stroke-miterlimit:10;stroke-dasharray:2,1;}
</style>
<g>
	<g>
		<path class="st0" d="M15.9,4.1c0,0,0.7-3.4,1.7-3.6c1-0.2,1.3,3.2,1.3,3.2s1.8-1.8,3-2.2c1.2-0.4,2.2-0.1,1.3,1
			c-0.9,1.1-2,4.5-2,6.1c0.1,3.9,3.7,5.2,5.9,6.6c6.6,4.4,7.9,8.6,7.9,13.4c0,6.9-6.7,12.1-17.3,12.1c-11.8,0-17.4-6.2-17.4-12.5
			c0-5.5,3-9.5,7.1-11.9c4.4-2.5,6.7-3.4,8.5-4.8c1.8-1.4-1.9-5.5-3.5-6.5c-1.2-0.8-1.2-1-3.3-1.8c0,0,1.8-1.6,3.6-1.1
			C15.1,2.8,17,5.4,17,5.4"/>
	</g>
	<g>
		<path class="st1" d="M22.7,6.5c0-0.3-0.2-0.8-1.8-0.6c-1.8,0.3-5.6,1.2-6.4,1.6c-0.7,0.4-1,0.8-0.7,1.2c0.3,0.4,4.6-0.2,4.6-0.2
			s-4.3,1.3-4.1,1.8c0.2,0.6,1,0.6,3,0.2c1.1-0.2,3.6-0.8,4.7-1.1c1.1-0.4,1.2-1.1,1.2-1.4c-0.1-0.5-5.1,0.8-5.1,0.8
			S22.8,6.8,22.7,6.5z"/>
	</g>
	<g>
		<path d="M17.7,37v-2c-1-0.1-1.8-0.4-2.5-0.7c-0.6-0.3-1.2-0.8-1.6-1.6c-0.5-0.7-0.7-1.6-0.8-2.6l2-0.4c0.2,1.1,0.4,1.9,0.8,2.4
			c0.6,0.7,1.2,1.1,2,1.2v-6.3c-0.8-0.2-1.7-0.6-2.5-1c-0.6-0.4-1.1-0.9-1.5-1.5c-0.3-0.6-0.5-1.4-0.5-2.2c0-1.4,0.5-2.6,1.5-3.5
			c0.7-0.6,1.7-1,3-1.1v-1h1.2v1c1.2,0.1,2.1,0.5,2.8,1c0.9,0.7,1.4,1.7,1.6,3L21.1,22c-0.1-0.8-0.4-1.4-0.7-1.8
			c-0.4-0.4-0.9-0.7-1.6-0.8v5.8c1,0.3,1.7,0.5,2,0.6c0.6,0.3,1.1,0.6,1.5,1s0.7,0.9,0.9,1.4c0.2,0.5,0.3,1.1,0.3,1.8
			c0,1.4-0.4,2.6-1.3,3.5c-0.9,0.9-2,1.4-3.4,1.5V37H17.7z M17.7,19.3c-0.8,0.1-1.4,0.4-1.8,0.9c-0.4,0.5-0.7,1.1-0.7,1.8
			c0,0.7,0.2,1.3,0.6,1.7c0.4,0.5,1,0.8,1.9,1V19.3z M18.8,33.2c0.8-0.1,1.4-0.4,1.9-1c0.5-0.6,0.8-1.3,0.8-2.2
			c0-0.7-0.2-1.3-0.5-1.8c-0.4-0.4-1.1-0.8-2.2-1.1V33.2z"/>
	</g>
</g>
</svg>
