<?xml version="1.0" encoding="utf-8"?>
<!-- Generator: Adobe Illustrator 22.1.0, SVG Export Plug-In . SVG Version: 6.00 Build 0)  -->
<svg version="1.1" xmlns="http://www.w3.org/2000/svg" xmlns:xlink="http://www.w3.org/1999/xlink" x="0px" y="0px"
	 viewBox="0 0 24.9 46.1" style="enable-background:new 0 0 24.9 46.1;" xml:space="preserve">
<style type="text/css">
	.st0{fill:#FFFFFF;}
	.st1{fill:#C29054;}
	.st2{fill:none;}
</style>
<g id="Layer_1">
	<path class="st0" d="M12.7,8.8l2,6.2l1.8,0l1.9-6.2c0,0-1.1-0.4-2.6-0.4S12.7,8.8,12.7,8.8z"/>
	<g>
		<g>
			<g id="XMLID_1_">
				<g>
					<path d="M20.8,32.3v8.9c-0.5,0-1.9,0-2.4,0c0-0.7-0.1-8.2-0.1-8.9C18.9,32.3,20.3,32.3,20.8,32.3z"/>
					<path d="M7.2,17.7v10.4c0,0.2-0.3,1.1-1.5,1.1c-1.3,0-1.3-1.4-1.3-1.6l0-12.7c0-1.8,2.9-2.5,3.8-2.7c1.9-0.4,4.1-0.4,4.2-0.4
						h0.7c0,0,2.2,0.1,4.2,0.4c0.9,0.2,3.8,0.8,3.8,2.7l0,12.8c0,0.1-0.1,1.5-1.4,1.5c-1.3,0-1.5-1-1.5-1.1V17.9h-0.4h-0.4v10.3v0.3
						v13.8c0,0,0,1-0.6,1.7c-0.4,0.4-0.9,0.5-1.5,0.5c-2.1,0-2.2-1.8-2.2-2V30.2h-0.4h-0.4v12.4c0,0.2-0.1,2-2.2,2
						c-0.6,0-1.1-0.2-1.5-0.5C8,43.4,8,42.4,8,42.3v-14v-0.2V17.7H7.6H7.2z"/>
					<path d="M20.3,30v1.5h-0.2V30C20.2,30,20.3,30,20.3,30z"/>
					<path d="M20.1,30v1.5h-0.2c0-0.3,0-1.1,0-1.5C20,30.1,20,30.1,20.1,30z"/>
					<path d="M19.9,31.5c0,0,0,0.1,0,0.1c-0.2,0-0.4,0-0.6,0c0,0,0-0.1,0-0.1H19.9z"/>
					<path d="M19.9,29.8c0,0,0,0.1,0,0.2c-0.1,0-0.1,0-0.2,0c-0.1,0-0.3,0-0.4,0c0-0.1,0-0.2,0-0.2C19.5,29.8,19.7,29.8,19.9,29.8z"
						/>
					<path class="st0" d="M19.7,30.1c0.1,0,0.1,0,0.2,0c0,0.4,0,1.1,0,1.5h-0.6c0-0.3,0-1.1,0-1.5C19.4,30.1,19.6,30.1,19.7,30.1z"
						/>
					<path d="M20.1,31.5v0.3l-1,0v-0.3h0.2c0,0,0,0.1,0,0.1c0.2,0,0.4,0,0.6,0c0,0,0-0.1,0-0.1H20.1z"/>
					<path d="M19.1,31.5V30c0.1,0,0.1,0,0.2,0c0,0.4,0,1.2,0,1.5H19.1z"/>
					<path d="M19.1,30v-0.4h1V30c-0.1,0-0.1,0-0.2,0c0-0.1,0-0.2,0-0.2c-0.2,0-0.4,0-0.6,0c0,0,0,0.1,0,0.2C19.2,30,19.2,30,19.1,30
						z"/>
					<polygon points="20.3,32.1 18.9,32 18.9,31.5 19.1,31.5 19.1,31.9 20.1,31.9 20.1,31.5 20.3,31.5 					"/>
					<path d="M19.1,30v1.5h-0.2v-1.6C19,30,19,30,19.1,30z"/>
					<path d="M19.1,29.6V30c-0.1,0-0.1,0-0.2-0.1v-0.5h1.2h0.2V30c-0.1,0-0.1,0-0.2,0v-0.4H19.1z"/>
					<path d="M20.8,32.3c-0.5,0-1.9,0-2.5,0c0,0.7,0.1,8.2,0.1,8.9c0.5,0,1.9,0,2.4,0V32.3z M18.9,32l1.4,0v-0.5h0.9h0.4v10.5h-3.4
						c0-1.3,0-7.2,0-10.5h0.7V32z"/>
					<path d="M17.5,31.5h0.8c0,3.4,0,9.2,0,10.5h-0.7L17.5,31.5z"/>
					<polygon points="18.2,28.1 18.2,28.5 17.8,28.5 17.8,28.1 					"/>
					<polygon points="18.2,17.9 18.2,28.1 17.8,28.1 17.8,17.9 					"/>
					<polygon points="17.8,28.1 17.8,28.5 17.4,28.5 17.4,28.2 					"/>
					<polygon points="17.8,17.9 17.8,28.1 17.4,28.2 17.4,17.9 					"/>
					<path d="M13.9,11.1c-0.4,0.1-0.8,0.2-1.3,0.2c-0.4,0-0.8-0.1-1.2-0.2c0.6,0,0.9,0,1,0h0.7C13.1,11.1,13.4,11.1,13.9,11.1z"/>
					<path d="M9.1,7.4c0-2,1.6-3.6,3.6-3.6s3.6,1.6,3.6,3.6s-1.6,3.6-3.6,3.6S9.1,9.3,9.1,7.4z"/>
					<rect x="12.7" y="42.6" width="0.4" height="0.3"/>
					<rect x="12.7" y="30.2" width="0.4" height="12.4"/>
					<rect x="12.3" y="42.6" width="0.4" height="0.3"/>
					<rect x="12.3" y="30.2" width="0.4" height="12.4"/>
					<path d="M12.6,11.7c-0.8,0-1.5-0.2-2.1-0.5c0.3,0,0.6,0,0.9-0.1c0.4,0.1,0.8,0.2,1.2,0.2c0.4,0,0.9-0.1,1.3-0.2
						c0.3,0,0.5,0,0.9,0C14.1,11.5,13.4,11.7,12.6,11.7z"/>
					<path d="M8.6,7.4c0-2.2,1.8-4,4-4s4,1.8,4,4c0,1.7-1.1,3.2-2.7,3.8c-0.5,0-0.7,0-0.8,0h-0.7c0,0-0.4,0-1,0
						C9.8,10.6,8.6,9.1,8.6,7.4z M12.6,3.8c-2,0-3.6,1.6-3.6,3.6s1.6,3.6,3.6,3.6s3.6-1.6,3.6-3.6S14.6,3.8,12.6,3.8z"/>
					<path d="M10.5,11.2C9.1,10.4,8.2,9,8.2,7.4c0-2.4,2-4.4,4.4-4.4C15,3,17,5,17,7.4c0,1.6-0.9,3.1-2.2,3.8c-0.3,0-0.6,0-0.9,0
						c1.6-0.5,2.7-2,2.7-3.8c0-2.2-1.8-4-4-4s-4,1.8-4,4c0,1.8,1.1,3.3,2.7,3.8C11.1,11.1,10.8,11.2,10.5,11.2z"/>
					<polygon points="8,28.2 8,28.4 7.6,28.4 7.6,28.2 					"/>
					<polygon points="8,17.7 8,28.2 7.6,28.2 7.6,17.7 					"/>
					<path d="M7.6,28.2v0.2H7.2v-0.2c0,0,0,0,0,0L7.6,28.2z"/>
					<path d="M7.2,28.2V17.7h0.4v10.4H7.2C7.2,28.1,7.2,28.1,7.2,28.2z"/>
					<path d="M8,11.5c0.8-0.1,1.7-0.3,2.5-0.3c0.6,0.3,1.3,0.5,2.1,0.5c0.8,0,1.5-0.2,2.1-0.6c0.8,0.1,1.7,0.2,2.7,0.3
						c2.8,0.5,4.5,1.8,4.5,3.5c0,0,0,12.8,0,12.8c0,0.7-0.4,2-1.6,2.3v-0.6h-0.2h-1.2v0.5c-0.3-0.1-0.5-0.2-0.7-0.4c0,0.4,0,1.1,0,2
						h-0.8l0.1,10.5h0.7c0,0.2,0,0.3,0,0.3c0,0.2,0,1.4-0.9,2.2c-0.5,0.5-1.2,0.8-2.1,0.8c-1.5,0-2.2-0.7-2.6-1.4
						c-0.4,0.8-1.2,1.4-2.6,1.4c-0.9,0-1.6-0.3-2.1-0.8c-0.8-0.9-0.9-2.1-0.9-2.2c0,0,0-10.6,0-12.8c-0.3,0.3-0.8,0.5-1.5,0.5
						c-1.7,0-2.1-1.5-2.2-2.4l0-12.8C3.5,13.3,5.2,12,8,11.5z M8.6,44c0.3,0.4,0.9,0.5,1.5,0.5c2.1,0,2.2-1.8,2.2-2v0.3h0.4h0.4
						v-0.3c0,0.2,0.1,2,2.2,2c0.6,0,1.1-0.2,1.5-0.5c0.6-0.6,0.6-1.6,0.6-1.7V28.5h0.4h0.4v-0.4c0,0.1,0.2,1.1,1.5,1.1
						c1.3,0,1.4-1.4,1.4-1.5L21,15c0-1.8-2.9-2.5-3.8-2.7c-1.9-0.4-4.2-0.4-4.2-0.4h-0.7c0,0-2.3,0.1-4.2,0.4
						c-0.9,0.2-3.8,0.8-3.8,2.7l0,12.7c0,0.2,0.1,1.6,1.3,1.6c1.2,0,1.5-0.9,1.5-1.1v0.2h0.4H8v14C8,42.4,8,43.4,8.6,44z"/>
				</g>
				<g>
				</g>
			</g>
		</g>
	</g>
</g>
<g id="Layer_1_copy">
	<path class="st0" d="M12.7,8.8l2,6.2l1.8,0l1.9-6.2c0,0-1.1-0.4-2.6-0.4S12.7,8.8,12.7,8.8z"/>
	<g>
		<path class="st1" d="M18.4,8.6c0.7,0.1,1.2,0.1,1.9,0.3c2,0.4,4.1,1.3,4.1,3.1c0,1.8,0,12.8,0,12.8s0,1.9-1.8,1.9
			c-1.7,0-1.9-1.5-1.9-1.5v14.2c0,0,0,2.6-2.5,2.6c-2.6,0-2.6-2.3-2.6-2.3s0,2.3-2.6,2.3c-2.6,0-2.5-2.6-2.5-2.6V25.2
			c0,0-0.2,1.5-1.9,1.5c-1.7,0-1.8-1.9-1.8-1.9s0-11,0-12.8c0-1.8,2.2-2.7,4.1-3.1c0.8-0.1,0.7-0.2,1.4-0.3l3.1,10.2L18.4,8.6z"/>
		<g>
			<polygon class="st0" points="22.1,28.9 22.1,26.6 23.1,26.6 23.1,28.9 			"/>
			<path d="M23.1,26.4h-1.2v2.6l1.4,0v-2.6C23.3,26.4,23.1,26.4,23.1,26.4z M22.9,26.8c0,0.3,0,1.5,0,1.8c-0.2,0-0.4,0-0.6,0
				c0-0.3,0-1.5,0-1.8C22.5,26.8,22.7,26.8,22.9,26.8z"/>
		</g>
		<g>
			<path d="M11,8.5C8.2,9,6.5,10.3,6.5,12l0,12.8c0,0.8,0.5,2.3,2.2,2.3c0.7,0,1.1-0.2,1.5-0.5c0,2.2,0,12.8,0,12.8
				c0,0.2,0,1.4,0.9,2.2c0.5,0.5,1.2,0.8,2.1,0.8c1.5,0,2.2-0.7,2.6-1.4c0.4,0.7,1.2,1.4,2.6,1.4l0,0c0.9,0,1.6-0.3,2.1-0.8
				c0.8-0.8,0.9-2.1,0.9-2.2c0,0,0-10.5,0-12.8c0.4,0.3,0.8,0.5,1.5,0.5c1.7,0,2.1-1.5,2.2-2.3c0,0,0-12.8,0-12.8
				c0-1.7-1.7-3-4.5-3.5c-2-0.4-4.2-0.4-4.3-0.4h-0.7C15.2,8.1,13,8.1,11,8.5z M7.4,12c0-1.8,2.9-2.5,3.8-2.7
				c1.9-0.3,4.2-0.4,4.2-0.4h0.7c0,0,2.2,0,4.2,0.4C21.1,9.5,24,10.1,24,12l0,12.8c0,0.1-0.1,1.5-1.4,1.5c-1.3,0-1.5-1-1.5-1.1
				l-0.8,0.1v14.2c0,0,0,1-0.6,1.7c-0.4,0.4-0.9,0.5-1.5,0.5c-2.1,0-2.2-1.8-2.2-2l-0.8,0c0,0.2-0.1,1.9-2.2,1.9
				c-0.6,0-1.1-0.2-1.5-0.5C11,40.4,11,39.4,11,39.3V25.2l-0.8-0.1c0,0.1-0.2,1.1-1.5,1.1c-1.3,0-1.4-1.4-1.4-1.5L7.4,12z"/>
		</g>
		<g>
			<line class="st2" x1="10.6" y1="25.4" x2="10.6" y2="14.7"/>
			<rect x="10.2" y="14.7" width="0.8" height="10.6"/>
		</g>
		<g>
			<line class="st2" x1="20.8" y1="25.5" x2="20.8" y2="14.9"/>
			<rect x="20.4" y="14.9" width="0.8" height="10.6"/>
		</g>
		<g>
			<line class="st2" x1="15.7" y1="39.9" x2="15.7" y2="27.2"/>
			<rect x="15.3" y="27.2" width="0.8" height="12.7"/>
		</g>
		<g>
			<circle class="st0" cx="15.6" cy="4.4" r="4"/>
			<path d="M11.2,4.4c0,2.4,2,4.4,4.4,4.4c2.4,0,4.4-2,4.4-4.4S18,0,15.6,0C13.2,0,11.2,2,11.2,4.4z M12,4.4c0-2,1.6-3.6,3.6-3.6
				c2,0,3.6,1.6,3.6,3.6s-1.6,3.6-3.6,3.6C13.6,7.9,12,6.3,12,4.4z"/>
		</g>
		<g>
			<polygon class="st1" points="20.9,29 24.2,29 24.2,38.7 21,38.7 			"/>
			<path d="M24.2,28.5h-3.7l0.1,10.5h4V28.5H24.2z M23.8,29.4c0,0.7,0,8.2,0,8.9c-0.5,0-1.9,0-2.4,0c0-0.7-0.1-8.2-0.1-8.9
				C21.9,29.4,23.3,29.4,23.8,29.4z"/>
		</g>
		<g>
			<path d="M12.4,8.7l3.1,10.5l3.1-10.4l-0.4-0.1c0,0-2.3,8-2.7,9.1c-0.3-1.1-2.7-9.2-2.7-9.2L12.4,8.7z"/>
		</g>
		<polygon points="14.1,13.4 14.9,8.7 16.2,8.7 17,13.4 15.5,18.2 		"/>
		<g>
			<path d="M10.8,9.1l0.1,3c0,0,0.7-0.2,1-0.3c-0.1,0.4-0.3,1.5-0.3,1.5l3.9,6.7l4-6.7c0,0-0.2-1-0.3-1.5c0.3,0.1,1,0.3,1,0.3l0.1-3
				l-0.4,0c0,0-0.1,2.1-0.1,2.5c-0.3-0.1-1.2-0.4-1.2-0.4s0.4,1.8,0.4,2c-0.1,0.1-3.3,5.5-3.6,6c-0.3-0.5-3.4-5.9-3.5-6
				c0-0.1,0.4-2,0.4-2s-0.9,0.3-1.2,0.4c0-0.4-0.1-2.5-0.1-2.5L10.8,9.1z"/>
		</g>
	</g>
</g>
</svg>
