<?xml version="1.0" encoding="utf-8"?>
<!-- Generator: Adobe Illustrator 22.1.0, SVG Export Plug-In . SVG Version: 6.00 Build 0)  -->
<svg version="1.1" xmlns="http://www.w3.org/2000/svg" xmlns:xlink="http://www.w3.org/1999/xlink" x="0px" y="0px"
	 viewBox="0 0 21.4 45.4" style="enable-background:new 0 0 21.4 45.4;" xml:space="preserve">
<style type="text/css">
	.st0{fill:#FFFFFF;}
	.st1{fill:none;}
	.st2{fill:#C29054;}
</style>
<g id="Layer_1">
	<path class="st0" d="M9.2,8.8l2,6.2l1.8,0l1.9-6.2c0,0-1.1-0.4-2.6-0.4S9.2,8.8,9.2,8.8z"/>
	<g>
		<g>
			<polygon class="st0" points="15.6,31.9 15.6,29.6 16.6,29.6 16.6,31.9 			"/>
			<path d="M16.6,29.4h-1.2v2.6l1.4,0v-2.6C16.8,29.4,16.6,29.4,16.6,29.4z M16.4,29.8c0,0.3,0,1.5,0,1.8c-0.2,0-0.4,0-0.6,0
				c0-0.3,0-1.5,0-1.8C16,29.8,16.2,29.8,16.4,29.8z"/>
		</g>
		<g>
			<path d="M4.5,11.5C1.7,12,0,13.3,0,15l0,12.8c0,0.8,0.5,2.3,2.2,2.3c0.7,0,1.1-0.2,1.5-0.5c0,2.2,0,12.8,0,12.8
				c0,0.2,0,1.4,0.9,2.2c0.5,0.5,1.2,0.8,2.1,0.8c1.5,0,2.2-0.7,2.6-1.4c0.4,0.7,1.2,1.4,2.6,1.4l0,0c0.9,0,1.6-0.3,2.1-0.8
				c0.8-0.8,0.9-2.1,0.9-2.2c0,0,0-10.5,0-12.8c0.4,0.3,0.8,0.5,1.5,0.5c1.7,0,2.1-1.5,2.2-2.3c0,0,0-12.8,0-12.8
				c0-1.7-1.7-3-4.5-3.5c-2-0.4-4.2-0.4-4.3-0.4H8.8C8.7,11.1,6.5,11.1,4.5,11.5z M0.9,15c0-1.8,2.9-2.5,3.8-2.7
				c1.9-0.3,4.2-0.4,4.2-0.4h0.7c0,0,2.2,0,4.2,0.4c0.9,0.2,3.8,0.8,3.8,2.7l0,12.8c0,0.1-0.1,1.5-1.4,1.5c-1.3,0-1.5-1-1.5-1.1
				l-0.8,0.1v14.2c0,0,0,1-0.6,1.7c-0.4,0.4-0.9,0.5-1.5,0.5c-2.1,0-2.2-1.8-2.2-2l-0.8,0c0,0.2-0.1,1.9-2.2,1.9
				c-0.6,0-1.1-0.2-1.5-0.5c-0.6-0.6-0.6-1.7-0.6-1.7V28.2l-0.8-0.1c0,0.1-0.2,1.1-1.5,1.1c-1.3,0-1.4-1.4-1.4-1.5L0.9,15z"/>
		</g>
		<g>
			<line class="st1" x1="4.1" y1="28.4" x2="4.1" y2="17.7"/>
			<rect x="3.7" y="17.7" width="0.8" height="10.6"/>
		</g>
		<g>
			<line class="st1" x1="14.3" y1="28.5" x2="14.3" y2="17.9"/>
			<rect x="13.9" y="17.9" width="0.8" height="10.6"/>
		</g>
		<g>
			<line class="st1" x1="9.2" y1="42.9" x2="9.2" y2="30.2"/>
			<rect x="8.8" y="30.2" width="0.8" height="12.7"/>
		</g>
		<g>
			<circle class="st0" cx="9.1" cy="7.4" r="4"/>
			<path d="M4.7,7.4c0,2.4,2,4.4,4.4,4.4c2.4,0,4.4-2,4.4-4.4S11.5,3,9.1,3C6.7,3,4.7,5,4.7,7.4z M5.5,7.4c0-2,1.6-3.6,3.6-3.6
				c2,0,3.6,1.6,3.6,3.6s-1.6,3.6-3.6,3.6C7.1,10.9,5.5,9.3,5.5,7.4z"/>
		</g>
		<g>
			<polygon class="st0" points="14.4,32 17.7,32 17.7,41.7 14.5,41.7 			"/>
			<path d="M17.7,31.5H14l0.1,10.5h4V31.5H17.7z M17.3,41.3c-0.5,0-1.9,0-2.4,0c0-0.7-0.1-8.2-0.1-8.9c0.5,0,1.9,0,2.5,0"/>
		</g>
	</g>
</g>
<g id="Layer_1_copy">
	<path class="st0" d="M9.2,8.8l2,6.2l1.8,0l1.9-6.2c0,0-1.1-0.4-2.6-0.4S9.2,8.8,9.2,8.8z"/>
	<g>
		<path class="st2" d="M14.9,8.6c0.7,0.1,1.2,0.1,1.9,0.3c2,0.4,4.1,1.3,4.1,3.1c0,1.8,0,12.8,0,12.8s0,1.9-1.8,1.9
			c-1.7,0-1.9-1.5-1.9-1.5v14.2c0,0,0,2.6-2.5,2.6c-2.6,0-2.6-2.3-2.6-2.3s0,2.3-2.6,2.3c-2.6,0-2.5-2.6-2.5-2.6V25.2
			c0,0-0.2,1.5-1.9,1.5c-1.7,0-1.8-1.9-1.8-1.9s0-11,0-12.8c0-1.8,2.2-2.7,4.1-3.1C8.4,8.8,8.3,8.7,9,8.6l3.1,10.2L14.9,8.6z"/>
		<g>
			<polygon class="st0" points="18.6,28.9 18.6,26.6 19.6,26.6 19.6,28.9 			"/>
			<path d="M19.6,26.4h-1.2v2.6l1.4,0v-2.6C19.8,26.4,19.6,26.4,19.6,26.4z M19.4,26.8c0,0.3,0,1.5,0,1.8c-0.2,0-0.4,0-0.6,0
				c0-0.3,0-1.5,0-1.8C19,26.8,19.2,26.8,19.4,26.8z"/>
		</g>
		<g>
			<path d="M7.5,8.5C4.7,9,3,10.3,3,12l0,12.8c0,0.8,0.5,2.3,2.2,2.3c0.7,0,1.1-0.2,1.5-0.5c0,2.2,0,12.8,0,12.8
				c0,0.2,0,1.4,0.9,2.2c0.5,0.5,1.2,0.8,2.1,0.8c1.5,0,2.2-0.7,2.6-1.4c0.4,0.7,1.2,1.4,2.6,1.4l0,0c0.9,0,1.6-0.3,2.1-0.8
				c0.8-0.8,0.9-2.1,0.9-2.2c0,0,0-10.5,0-12.8c0.4,0.3,0.8,0.5,1.5,0.5c1.7,0,2.1-1.5,2.2-2.3c0,0,0-12.8,0-12.8
				c0-1.7-1.7-3-4.5-3.5c-2-0.4-4.2-0.4-4.3-0.4h-0.7C11.7,8.1,9.5,8.1,7.5,8.5z M3.9,12c0-1.8,2.9-2.5,3.8-2.7
				c1.9-0.3,4.2-0.4,4.2-0.4h0.7c0,0,2.2,0,4.2,0.4c0.9,0.2,3.8,0.8,3.8,2.7l0,12.8c0,0.1-0.1,1.5-1.4,1.5c-1.3,0-1.5-1-1.5-1.1
				l-0.8,0.1v14.2c0,0,0,1-0.6,1.7c-0.4,0.4-0.9,0.5-1.5,0.5c-2.1,0-2.2-1.8-2.2-2l-0.8,0c0,0.2-0.1,1.9-2.2,1.9
				c-0.6,0-1.1-0.2-1.5-0.5c-0.6-0.6-0.6-1.7-0.6-1.7V25.2l-0.8-0.1c0,0.1-0.2,1.1-1.5,1.1c-1.3,0-1.4-1.4-1.4-1.5L3.9,12z"/>
		</g>
		<g>
			<line class="st1" x1="7.1" y1="25.4" x2="7.1" y2="14.7"/>
			<rect x="6.7" y="14.7" width="0.8" height="10.6"/>
		</g>
		<g>
			<line class="st1" x1="17.3" y1="25.5" x2="17.3" y2="14.9"/>
			<rect x="16.9" y="14.9" width="0.8" height="10.6"/>
		</g>
		<g>
			<line class="st1" x1="12.2" y1="39.9" x2="12.2" y2="27.2"/>
			<rect x="11.8" y="27.2" width="0.8" height="12.7"/>
		</g>
		<g>
			<circle class="st0" cx="12.1" cy="4.4" r="4"/>
			<path d="M7.7,4.4c0,2.4,2,4.4,4.4,4.4c2.4,0,4.4-2,4.4-4.4S14.5,0,12.1,0C9.7,0,7.7,2,7.7,4.4z M8.5,4.4c0-2,1.6-3.6,3.6-3.6
				c2,0,3.6,1.6,3.6,3.6s-1.6,3.6-3.6,3.6C10.1,7.9,8.5,6.3,8.5,4.4z"/>
		</g>
		<g>
			<polygon class="st2" points="17.4,29 20.7,29 20.7,38.7 17.5,38.7 			"/>
			<path d="M20.7,28.5H17l0.1,10.5h4V28.5H20.7z M20.3,29.4c0,0.7,0,8.2,0,8.9c-0.5,0-1.9,0-2.4,0c0-0.7-0.1-8.2-0.1-8.9
				C18.4,29.4,19.8,29.4,20.3,29.4z"/>
		</g>
		<g>
			<path d="M8.9,8.7L12,19.2l3.1-10.4l-0.4-0.1c0,0-2.3,8-2.7,9.1c-0.3-1.1-2.7-9.2-2.7-9.2L8.9,8.7z"/>
		</g>
		<polygon points="10.6,13.4 11.4,8.7 12.7,8.7 13.5,13.4 12,18.2 		"/>
		<g>
			<path d="M7.3,9.1l0.1,3c0,0,0.7-0.2,1-0.3c-0.1,0.4-0.3,1.5-0.3,1.5L12,20l4-6.7c0,0-0.2-1-0.3-1.5c0.3,0.1,1,0.3,1,0.3l0.1-3
				l-0.4,0c0,0-0.1,2.1-0.1,2.5c-0.3-0.1-1.2-0.4-1.2-0.4s0.4,1.8,0.4,2c-0.1,0.1-3.3,5.5-3.6,6c-0.3-0.5-3.4-5.9-3.5-6
				c0-0.1,0.4-2,0.4-2s-0.9,0.3-1.2,0.4C7.7,11.1,7.7,9,7.7,9L7.3,9.1z"/>
		</g>
	</g>
</g>
</svg>
