<?xml version="1.0" encoding="utf-8"?>
<!-- Generator: Adobe Illustrator 22.1.0, SVG Export Plug-In . SVG Version: 6.00 Build 0)  -->
<svg version="1.1" xmlns="http://www.w3.org/2000/svg" xmlns:xlink="http://www.w3.org/1999/xlink" x="0px" y="0px"
	 viewBox="0 0 44 44.7" style="enable-background:new 0 0 44 44.7;" xml:space="preserve">
<style type="text/css">
	.st0{stroke:#000000;stroke-miterlimit:10;}
	.st1{fill:#FFFFFF;}
	.st2{fill:#C30009;}
</style>
<g id="Layer_1">
	<g>
		<g>
			<path class="st0" d="M35.7,35.4c0,0-4.9,2.8-10.2,2.8s-6.3-3.3-12.8-3.3S1.2,38.2,1.2,38.2V12.4c0,0,5-3.3,11.5-3.3
				s7.5,3.3,12.8,3.3s10.2-2.8,10.2-2.8V35.4z"/>
			<path d="M1,12.1l-0.2,0.1v26.7l0.6-0.4c0,0,5-3.2,11.3-3.2c3.3,0,5.2,0.9,6.9,1.7c1.7,0.8,3.2,1.5,5.8,1.5
				c5.3,0,10.2-2.7,10.4-2.8l0.2-0.1V9l-0.6,0.3c0,0-4.9,2.7-10,2.7c-2.4,0-3.9-0.7-5.5-1.5c-1.8-0.8-3.8-1.8-7.3-1.8
				C6.2,8.8,1.2,11.9,1,12.1z M12.7,9.6c3.3,0,5.2,0.9,6.9,1.7c1.7,0.8,3.2,1.5,5.8,1.5c4.3,0,8.3-1.8,9.8-2.5c0,1.2,0,24.4,0,24.8
				c-0.9,0.5-5.2,2.6-9.8,2.6c-2.4,0-3.9-0.7-5.5-1.5c-1.8-0.8-3.8-1.8-7.3-1.8c-5.3,0-9.6,2.1-11.1,2.9c0-1.3,0-24.4,0-24.8
				C2.5,12.1,7,9.6,12.7,9.6z"/>
		</g>
		<g>
			<rect x="35.7" y="8.3" class="st0" width="2.5" height="35.7"/>
		</g>
		<g>
			<path class="st0" d="M33.7,6.5c0,1.8,1.5,3.2,3.2,3.2c1.8,0,3.2-1.5,3.2-3.2s-1.5-3.2-3.2-3.2C35.1,3.2,33.7,4.7,33.7,6.5z"/>
		</g>
	</g>
</g>
<g id="Layer_1_copy">
	<g>
		<g>
			<path class="st1" d="M38.7,32.4c0,0-4.9,2.8-10.2,2.8s-6.3-3.2-12.8-3.2S4.2,35.2,4.2,35.2V9.4c0,0,5-3.3,11.5-3.3
				s7.5,3.3,12.8,3.3s10.2-2.8,10.2-2.8V32.4z"/>
			<path d="M4,9.1L3.8,9.2v26.7l0.6-0.4c0,0,5-3.2,11.3-3.2c3.3,0,5.2,0.9,6.9,1.7c1.7,0.8,3.2,1.5,5.8,1.5c5.3,0,10.2-2.7,10.4-2.8
				l0.2-0.1V6l-0.6,0.3c0,0-4.9,2.7-10,2.7c-2.4,0-3.9-0.7-5.5-1.5c-1.8-0.8-3.8-1.8-7.3-1.8C9.2,5.8,4.2,8.9,4,9.1z M15.7,6.6
				c3.3,0,5.2,0.9,6.9,1.7c1.7,0.8,3.2,1.5,5.8,1.5c4.3,0,8.3-1.8,9.8-2.5c0,1.2,0,24.4,0,24.8c-0.9,0.5-5.2,2.6-9.8,2.6
				c-2.4,0-3.9-0.7-5.5-1.5c-1.8-0.8-3.8-1.8-7.3-1.8c-5.3,0-9.6,2.1-11.1,2.9c0-1.3,0-24.4,0-24.8C5.5,9.1,10,6.6,15.7,6.6z"/>
		</g>
		<g>
			<g>
				<polygon class="st1" points="31.7,28 21.3,11.3 11.1,27.9 				"/>
				<path class="st2" d="M20.5,10.8L9.4,28.9l24,0L21.3,9.5L20.5,10.8z M21.4,13.1c1.2,2,7.3,11.7,8.6,13.9c-2.6,0-14.6,0-17.2,0
					C14.2,24.8,20.1,15.1,21.4,13.1z"/>
			</g>
			<g>
				<rect x="20.4" y="16.5" width="1.9" height="6.2"/>
			</g>
			<circle cx="21.3" cy="25" r="1.1"/>
		</g>
		<g>
			<rect x="38.7" y="5.3" class="st1" width="2.5" height="35.7"/>
			<path d="M41.2,4.8h-2.9v36.1h0.8c0,0,0-34.5,0-35.3c0.5,0,1.2,0,1.7,0c0,0.8,0,35.3,0,35.3h0.8V4.8H41.2z"/>
		</g>
		<g>
			<circle class="st1" cx="39.9" cy="3.5" r="2.8"/>
			<path d="M36.7,3.5c0,1.8,1.5,3.2,3.2,3.2c1.8,0,3.2-1.5,3.2-3.2s-1.5-3.2-3.2-3.2C38.1,0.2,36.7,1.7,36.7,3.5z M37.5,3.5
				c0-1.3,1.1-2.4,2.4-2.4c1.3,0,2.4,1.1,2.4,2.4s-1.1,2.4-2.4,2.4C38.6,5.9,37.5,4.8,37.5,3.5z"/>
		</g>
	</g>
</g>
</svg>
