<svg xmlns="http://www.w3.org/2000/svg" viewBox="0 0 30.65 44.03"><defs><style>.cls-1{fill:#fff;}.cls-2{fill:#c30009;}</style></defs><title>threat-human-accidental-symbol-shadow</title><g id="Layer_2" data-name="Layer 2"><path d="M9.2,42.59A2.74,2.74,0,0,1,6.58,44a2.78,2.78,0,0,1-2.07-.78A3.4,3.4,0,0,1,3.65,41V28.23A2.22,2.22,0,0,1,0,26.4L.05,13.64c0-1.66,1.67-3,4.48-3.47C5.37,10,6.25,9.92,7,9.86a4.37,4.37,0,0,0,2.1.54,4.25,4.25,0,0,0,2.12-.56c.62.05,1.35.13,2.08.24L4.9,23.74H18.39c0,1.56,0,2.66,0,2.66a2.24,2.24,0,0,1-2.17,2.34,2.21,2.21,0,0,1-1.48-.52V41a3.42,3.42,0,0,1-.86,2.23,2.78,2.78,0,0,1-2.07.78A2.74,2.74,0,0,1,9.2,42.59Z"/><path d="M9.1,1.67a4.36,4.36,0,0,1,2.12,8.17c-.93-.06-1.6-.07-1.65-.08H8.84c-.06,0-.82,0-1.84.1A4.37,4.37,0,0,1,9.1,1.67Z"/><path d="M4.9,23.74l8.4-13.66.57.09c2.81.52,4.48,1.81,4.48,3.47,0,0,0,6.37,0,10.11Z"/><path d="M18.35,13.64c0-1.66-1.67-3-4.48-3.47l-.57-.09L16,5.66l.8-1.3L28.87,23.75H18.39C18.37,20,18.35,13.64,18.35,13.64Z"/><path d="M8.84,9.76h.73s.72,0,1.65.08a4.25,4.25,0,0,1-2.12.56A4.37,4.37,0,0,1,7,9.86C8,9.78,8.78,9.77,8.84,9.76Z"/></g><g id="Layer_1" data-name="Layer 1"><path class="cls-1" d="M10.88.81A3.56,3.56,0,1,1,7.33,4.37,3.57,3.57,0,0,1,10.88.81Z"/><path class="cls-1" d="M18,26.27a1.36,1.36,0,0,1-1.49-1.14V22.07h2.84v2.66C19.36,24.88,19.28,26.27,18,26.27Z"/><path class="cls-1" d="M5.43,14.72V25.16a1.37,1.37,0,0,1-1.49,1.11c-1.27,0-1.35-1.39-1.35-1.55L2.63,12c0-1.83,2.93-2.51,3.82-2.67a31,31,0,0,1,4.18-.4h.71s1.62,0,3.28.26L6.68,22.07H6.24V14.72Z"/><path class="cls-1" d="M15.71,25.5V39.34A2.59,2.59,0,0,1,15.09,41a2,2,0,0,1-1.5.54,2,2,0,0,1-2.21-1.95V27.21h-.81V39.6a2,2,0,0,1-2.21,1.95A2,2,0,0,1,6.87,41a2.62,2.62,0,0,1-.63-1.66V22.07h9.47V25.5Z"/><path class="cls-2" d="M20.17,21.13v.95h-.81v-.95Z"/><path class="cls-2" d="M20.16,20.18c0,.32,0,.64,0,.95h-.81v-.95Q19.76,20.2,20.16,20.18Z"/><path class="cls-1" d="M19.52,15.89V10.37a2.44,2.44,0,0,1,.61,1.6s0,4.54,0,8.21q-.4,0-.81,0V18.92a1.09,1.09,0,0,0,.32-.78,1.16,1.16,0,0,0-.33-.8V15.89Z"/><path d="M19.35,18.92V17.34a1.16,1.16,0,0,1,.33.8A1.09,1.09,0,0,1,19.35,18.92Z"/><path d="M19.52,9.72v.65a3.39,3.39,0,0,0-.7-.65Z"/><path class="cls-1" d="M19.52,10.37V9.72h-.7A6.49,6.49,0,0,0,17,8.84l1.58-2.56,8.64,13.91H20.16c0-3.67,0-8.21,0-8.21A2.44,2.44,0,0,0,19.52,10.37Z"/><polygon class="cls-2" points="19.36 21.13 19.36 22.08 16.52 22.07 16.52 21.12 19.36 21.13"/><path d="M19.32,12l0,3.92H17.63V10C18.52,10.37,19.32,11,19.32,12Z"/><path d="M18.54,19.26a1.13,1.13,0,1,1,0-2.25,1.16,1.16,0,0,1,.8.33v1.58A1.15,1.15,0,0,1,18.54,19.26Z"/><path class="cls-2" d="M19.36,21.13H16.52v-.94h2.83Z"/><path class="cls-2" d="M18.6,4.48,16.07,8.59l-.42-.09-.57-.09L17.8,4l.8-1.3,12,19.39H20.17v-.95H29Z"/><path class="cls-2" d="M16.07,8.59,18.6,4.48,29,21.13H20.17c0-.31,0-.63,0-.95h7.09L18.61,6.28,17,8.84C16.73,8.75,16.41,8.66,16.07,8.59Z"/><path d="M17.63,10V9.72h1.19a3.39,3.39,0,0,1,.7.65v5.52h-.18l0-3.92C19.32,11,18.52,10.37,17.63,10Z"/><path class="cls-1" d="M17.63,9.72V10a8.37,8.37,0,0,0-1-.39L17,8.84a6.49,6.49,0,0,1,1.79.88Z"/><path class="cls-1" d="M10.06,20.18,16.59,9.56a8.37,8.37,0,0,1,1,.39v5.94h1.71v1.45a1.16,1.16,0,0,0-.8-.33,1.13,1.13,0,1,0,0,2.25,1.15,1.15,0,0,0,.81-.34v1.26H16.52V14.86h-.81v5.32Z"/><polygon points="16.52 25.13 16.52 25.5 15.71 25.5 15.71 25.18 16.52 25.13"/><polygon points="16.52 22.07 16.52 25.13 15.71 25.18 15.71 22.07 16.52 22.07"/><rect class="cls-2" x="15.71" y="21.12" width="0.81" height="0.95"/><path class="cls-2" d="M16.52,20.18v.94h-.81v-.94Z"/><path class="cls-1" d="M16.52,14.86v5.32h-.81V14.86Z"/><path class="cls-2" d="M17,8.84l-.44.72c-.39-.12-.73-.19-1-.24l.45-.73C16.41,8.66,16.73,8.75,17,8.84Z"/><path class="cls-2" d="M14.62,9.16l.46-.75.57.09.42.09-.45.73-.11,0Z"/><path class="cls-2" d="M8.37,21.12h7.34v.95h-9L14.62,9.16l.89.14.11,0Z"/><rect x="10.57" y="39.6" width="0.81" height="0.33"/><rect x="10.57" y="27.21" width="0.81" height="12.39"/><path d="M13,8.17a4.25,4.25,0,0,1-2.12.56,4.37,4.37,0,0,1-2.1-.54c1-.08,1.78-.09,1.84-.1h.73C11.4,8.1,12.07,8.11,13,8.17Z"/><path class="cls-2" d="M10.06,20.18h5.65v.94H8.37l7.25-11.8c.24,0,.58.12,1,.24Z"/><path d="M10.88,7.92A3.56,3.56,0,1,0,7.33,4.37,3.56,3.56,0,0,0,10.88,7.92Zm-2.1.27a4.38,4.38,0,1,1,4.22,0c-.93-.06-1.6-.07-1.65-.08h-.73C10.56,8.1,9.8,8.11,8.78,8.19Z"/><path d="M6.24,25.18v.18H5.43v-.2a0,0,0,0,0,0,0Z"/><path d="M5.43,25.16V14.72h.81V25.18l-.8-.05A0,0,0,0,1,5.43,25.16Z"/><path d="M10.63,8.9a31,31,0,0,0-4.18.4c-.89.16-3.82.84-3.82,2.67l0,12.75c0,.16.08,1.55,1.35,1.55a1.37,1.37,0,0,0,1.49-1.11v.2h.81v14A2.62,2.62,0,0,0,6.87,41a2,2,0,0,0,1.49.54,2,2,0,0,0,2.21-1.95v.33h.81V39.6a2,2,0,0,0,2.21,1.95,2,2,0,0,0,1.5-.54,2.59,2.59,0,0,0,.62-1.67V25.5h.81v-.37A1.36,1.36,0,0,0,18,26.27c1.27,0,1.35-1.39,1.36-1.53V22.08h.81c0,1.55,0,2.66,0,2.66A2.24,2.24,0,0,1,18,27.08a2.21,2.21,0,0,1-1.48-.52V39.35a3.42,3.42,0,0,1-.86,2.23,2.78,2.78,0,0,1-2.07.78A2.74,2.74,0,0,1,11,40.92a2.74,2.74,0,0,1-2.62,1.44,2.78,2.78,0,0,1-2.07-.78,3.4,3.4,0,0,1-.86-2.22V26.56a2.22,2.22,0,0,1-3.65-1.83L1.83,12c0-1.66,1.67-3,4.48-3.47.84-.15,1.72-.25,2.47-.31a4.37,4.37,0,0,0,2.1.54A4.25,4.25,0,0,0,13,8.17c.62.06,1.35.13,2.08.24l-.46.75C13,8.94,11.35,8.9,11.34,8.9Z"/></g></svg>