<?xml version="1.0" encoding="utf-8"?>
<!-- Generator: Adobe Illustrator 22.1.0, SVG Export Plug-In . SVG Version: 6.00 Build 0)  -->
<svg version="1.1" xmlns="http://www.w3.org/2000/svg" xmlns:xlink="http://www.w3.org/1999/xlink" x="0px" y="0px"
	 viewBox="0 0 31.6 47.9" style="enable-background:new 0 0 31.6 47.9;" xml:space="preserve">
<style type="text/css">
	.st0{fill:#FFFFFF;stroke:#000000;}
	.st1{fill:none;stroke:#000000;stroke-width:0.27;}
	.st2{fill:#FFFFFF;}
	.st3{fill:#C30009;}
</style>
<g id="Layer_1">
	<g>
		<g>
			<g>
				<path class="st0" d="M4.3,14.5c-1,0.2-4.3,1-4.3,3.2l0,12.8c0,0,0.1,2.1,1.9,2.1c1,0,1.5-0.5,1.8-0.9c0,1.3,0,13.5,0,13.5
					c0,0.1,0,1.3,0.8,2c0.5,0.5,1.1,0.7,1.9,0.7c1.8,0,2.4-1.1,2.6-1.8c0.2,0.7,0.9,1.8,2.6,1.8c0.8,0,1.4-0.2,1.9-0.7
					c0.8-0.8,0.8-1.9,0.8-2c0,0,0-12.2,0-13.5c0.3,0.4,0.7,0.9,1.8,0.9c1.8,0,1.9-2,1.9-2.1c0,0,0-12.8,0-12.8c0-2.3-3.3-3-4.3-3.2
					c-2-0.4-4.2-0.4-4.3-0.4H8.5C8.5,14.1,6.2,14.2,4.3,14.5z"/>
			</g>
			<line class="st1" x1="8.9" y1="45.7" x2="8.9" y2="33"/>
		</g>
		<g>
			<path class="st0" d="M15.7,9.8L4.6,27.8l24,0L16.5,8.5L15.7,9.8z"/>
		</g>
		<g>
			<path class="st0" d="M4.9,8.8c-0.1,0.4-0.2,0.9-0.2,1.3c0,2.3,1.8,4.1,4.1,4.1c2.3,0,4.1-1.8,4.1-4.1c0-0.5-0.1-0.9-0.2-1.3
				c0,0,1-0.3,1.8-2.1c0.9-2-0.4-3.8-0.4-3.8s-0.2,1.6-1,2.7C12.6,6.6,11.5,7,11.5,7c-0.7-0.6-1.7-1-2.7-1c-1,0-1.9,0.4-2.6,1
				c0,0-0.9-0.4-1.5-1.2C3.9,4.7,3.6,3,3.6,3S2.5,4.6,3.1,6.4C3.7,8.2,4.9,8.8,4.9,8.8z"/>
		</g>
	</g>
</g>
<g id="Layer_1_copy">
	<g>
		<g>
			<g>
				<path d="M7.3,11.5c-1,0.2-4.3,1-4.3,3.2l0,12.8c0,0,0.1,2.1,1.9,2.1c1,0,1.5-0.5,1.8-0.9c0,1.3,0,13.5,0,13.5c0,0.1,0,1.3,0.8,2
					c0.5,0.5,1.1,0.7,1.9,0.7c1.8,0,2.4-1.1,2.6-1.8c0.2,0.7,0.9,1.8,2.6,1.8c0.8,0,1.4-0.2,1.9-0.7c0.8-0.8,0.8-1.9,0.8-2
					c0,0,0-12.2,0-13.5c0.3,0.4,0.7,0.9,1.8,0.9c1.8,0,1.9-2,1.9-2.1c0,0,0-12.8,0-12.8c0-2.3-3.3-3-4.3-3.2c-2-0.4-4.2-0.4-4.3-0.4
					h-0.7C11.5,11.1,9.2,11.2,7.3,11.5z"/>
			</g>
			<line class="st1" x1="11.9" y1="42.7" x2="11.9" y2="30"/>
		</g>
		<g>
			<polygon class="st2" points="29.9,23.9 19.5,7.3 9.3,23.9 			"/>
			<path class="st3" d="M18.7,6.8L7.6,24.8l24,0L19.5,5.5L18.7,6.8z M19.5,9.1c1.2,2,7.3,11.7,8.6,13.9c-2.6,0-14.6,0-17.2,0
				C12.3,20.8,18.3,11.1,19.5,9.1z"/>
		</g>
		<g>
			<rect x="18.6" y="12.5" width="1.9" height="6.2"/>
		</g>
		<circle cx="19.5" cy="20.9" r="1.1"/>
		<g>
			<path d="M7.9,5.8C7.8,6.2,7.7,6.7,7.7,7.1c0,2.3,1.8,4.1,4.1,4.1c2.3,0,4.1-1.8,4.1-4.1c0-0.5-0.1-0.9-0.2-1.3c0,0,1-0.3,1.8-2.1
				c0.9-2-0.4-3.8-0.4-3.8s-0.2,1.6-1,2.7C15.6,3.6,14.5,4,14.5,4c-0.7-0.6-1.7-1-2.7-1c-1,0-1.9,0.4-2.6,1c0,0-0.9-0.4-1.5-1.2
				C6.9,1.7,6.6,0,6.6,0S5.5,1.6,6.1,3.4C6.7,5.2,7.9,5.8,7.9,5.8z"/>
		</g>
	</g>
</g>
</svg>
