<?xml version="1.0" encoding="utf-8"?>
<!-- Generator: Adobe Illustrator 12.0.1, SVG Export Plug-In . SVG Version: 6.00 Build 51448)  -->
<!DOCTYPE svg PUBLIC "-//W3C//DTD SVG 1.1//EN" "http://www.w3.org/Graphics/SVG/1.1/DTD/svg11.dtd" [
	<!ENTITY ns_svg "http://www.w3.org/2000/svg">
	<!ENTITY ns_xlink "http://www.w3.org/1999/xlink">
]>
<svg  version="1.1" id="Layer_1" xmlns="&ns_svg;" xmlns:xlink="&ns_xlink;" width="39.31" height="40.681"
	 viewBox="0 0 39.31 40.681" overflow="visible" enable-background="new 0 0 39.31 40.681" xml:space="preserve">
<g>
	<g>
		<path fill="#FFFFFF" enable-background="new    " d="M34.822,32.181c0,0-4.918,2.75-10.168,2.75s-6.25-3.25-12.75-3.25
			s-11.5,3.25-11.5,3.25V9.181c0,0,5-3.25,11.5-3.25s7.5,3.25,12.75,3.25s10.168-2.75,10.168-2.75V32.181z"/>
		<path d="M0.184,8.841L0,8.961v26.715l0.625-0.405c0.049-0.032,4.982-3.185,11.279-3.185c3.332,0,5.168,0.872,6.944,1.716
			c1.661,0.789,3.23,1.534,5.806,1.534c5.295,0,10.161-2.688,10.365-2.802l0.208-0.116V5.741l-0.603,0.336
			c-0.049,0.027-4.893,2.699-9.971,2.699c-2.394,0-3.883-0.708-5.458-1.456c-1.771-0.841-3.777-1.794-7.292-1.794
			C5.359,5.526,0.392,8.706,0.184,8.841z M11.904,6.335c3.332,0,5.168,0.873,6.944,1.716c1.661,0.789,3.23,1.534,5.806,1.534
			c4.323,0,8.315-1.772,9.763-2.492c0,1.245,0,24.377,0,24.843c-0.938,0.487-5.247,2.589-9.763,2.589
			c-2.394,0-3.883-0.707-5.458-1.456c-1.771-0.841-3.777-1.794-7.292-1.794c-5.342,0-9.584,2.097-11.095,2.949
			c0-1.323,0-24.381,0-24.816C1.672,8.891,6.211,6.335,11.904,6.335z"/>
	</g>
	<g>
		<g>
			<polygon fill="#FFFFFF" enable-background="new    " points="27.863,27.719 17.514,11.069 7.277,27.711 			"/>
			<path fill="#C30009" d="M16.709,10.574L5.587,28.655l23.977,0.009L17.509,9.272L16.709,10.574z M17.518,12.866
				c1.243,2,7.275,11.704,8.645,13.908c-2.606-0.001-14.604-0.006-17.195-0.007C10.319,24.57,16.285,14.87,17.518,12.866z"/>
		</g>
		<g>
			<rect x="16.591" y="16.307" width="1.89" height="6.164"/>
		</g>
		<circle cx="17.51" cy="24.723" r="1.126"/>
	</g>
	<g>
		<rect x="34.904" y="5.014" fill="#FFFFFF" enable-background="new    " width="2.5" height="35.667"/>
		<path d="M37.404,4.609h-2.905v36.071h0.811c0,0,0-34.47,0-35.262c0.459,0,1.23,0,1.689,0c0,0.792,0,35.262,0,35.262h0.811V4.609
			H37.404z"/>
	</g>
	<g>
		<circle fill="#FFFFFF" enable-background="new    " cx="36.071" cy="3.238" r="2.833"/>
		<path d="M32.833,3.238c0,1.786,1.453,3.238,3.239,3.238c1.785,0,3.237-1.452,3.237-3.238S37.857,0,36.072,0
			C34.286,0,32.833,1.452,32.833,3.238z M33.644,3.238c0-1.339,1.089-2.428,2.429-2.428c1.338,0,2.427,1.089,2.427,2.428
			s-1.089,2.428-2.427,2.428C34.732,5.666,33.644,4.577,33.644,3.238z"/>
	</g>
</g>
</svg>
