<?xml version="1.0" encoding="utf-8"?>
<!-- Generator: Adobe Illustrator 12.0.1, SVG Export Plug-In . SVG Version: 6.00 Build 51448)  -->
<!DOCTYPE svg PUBLIC "-//W3C//DTD SVG 1.1//EN" "http://www.w3.org/Graphics/SVG/1.1/DTD/svg11.dtd" [
	<!ENTITY ns_svg "http://www.w3.org/2000/svg">
	<!ENTITY ns_xlink "http://www.w3.org/1999/xlink">
]>
<svg  version="1.1" id="Layer_1" xmlns="&ns_svg;" xmlns:xlink="&ns_xlink;" width="46.014" height="39.112"
     viewBox="0 0 46.014 39.112" overflow="visible" enable-background="new 0 0 46.014 39.112" xml:space="preserve">

    <defs>
        <g id="shadow">
            <g>
            <path fill="#000000" enable-background="new    " d="M16.606,7.798l27.172,22.088c2.128,1.73,2.451,4.857,0.723,6.986
                c-1.73,2.129-4.859,2.453-6.987,0.723L13.502,18.083 M41.381,31.99c-0.729-0.592-1.797-0.481-2.387,0.245
                c-0.592,0.729-0.48,1.797,0.246,2.389c0.728,0.59,1.798,0.48,2.389-0.248C42.221,33.649,42.108,32.581,41.381,31.99z"/>
            <path d="M16.589,8.306C17.058,8.687,43.522,30.2,43.522,30.2c1.107,0.9,1.683,2.218,1.683,3.545c0,1.011-0.333,2.028-1.019,2.872
                c-0.769,0.945-1.86,1.536-3.073,1.661c-1.212,0.125-2.399-0.229-3.344-0.998L13.758,17.769c0,0,0.648-2.414,1.296-4.827
                c-0.903,2.728-1.807,5.456-1.807,5.456l24.01,19.511c1.113,0.904,2.512,1.321,3.938,1.175c1.428-0.147,2.713-0.843,3.619-1.956
                c1.866-2.299,1.516-5.688-0.781-7.557L16.861,7.483C16.861,7.483,16.627,8.191,16.589,8.306z M15.054,12.942
                c0.768-2.318,1.321-3.99,1.535-4.636c-0.004-0.003-0.238-0.194-0.238-0.194S15.702,10.527,15.054,12.942z"/>
            <path d="M40.093,31.216c-0.559,0.058-1.06,0.329-1.413,0.765c-0.73,0.898-0.594,2.226,0.305,2.958
                c0.902,0.73,2.229,0.593,2.959-0.308c0.354-0.434,0.517-0.979,0.459-1.537c-0.058-0.559-0.329-1.062-0.766-1.418l0,0
                C41.2,31.321,40.652,31.158,40.093,31.216z M39.496,34.31c-0.552-0.449-0.636-1.266-0.187-1.818
                c0.217-0.268,0.524-0.435,0.867-0.47c0.344-0.036,0.681,0.064,0.949,0.283s0.437,0.528,0.472,0.872
                c0.005,0.045,0.007,0.09,0.007,0.134c0,0.295-0.101,0.578-0.289,0.81C40.866,34.674,40.05,34.759,39.496,34.31z"/>
            </g>
            <g>
            <path fill="#000000" enable-background="new    " d="M8.692,5.163l1.749,4.966l-4.009,3.674l-5.85-1.48
                c0.889,3.116,3.372,5.768,6.74,6.625c5.036,1.28,10.159-1.767,11.441-6.802c1.279-5.039-1.767-10.161-6.805-11.443
                C8.39-0.205,4.817,1.013,2.558,3.619L8.692,5.163z"/>
            <path d="M2.252,3.354L1.821,3.851c0,0,6.168,1.553,6.562,1.652c0.125,0.357,1.435,4.073,1.588,4.508
                c-0.342,0.313-3.369,3.087-3.65,3.346C5.926,13.257,0,11.757,0,11.757l0.193,0.676c0.971,3.403,3.665,6.05,7.03,6.906
                c5.245,1.333,10.598-1.85,11.934-7.095c1.332-5.247-1.852-10.601-7.098-11.936C8.435-0.611,4.677,0.555,2.252,3.354z M11.86,1.095
                c4.812,1.225,7.734,6.137,6.512,10.951c-1.226,4.812-6.137,7.732-10.949,6.509c-2.84-0.723-5.099-2.87-6.146-5.639
                c1.185,0.3,5.268,1.333,5.268,1.333l4.367-4.003l-1.91-5.423c0,0-4.502-1.133-5.625-1.416C5.598,1.218,8.767,0.309,11.86,1.095z"
                />
            </g>
        </g>
    </defs>
    <g>
        <use href="#shadow" x="-2.5px" y="2.5px" />
        <g>
            <path fill="#68A539" enable-background="new    " d="M16.606,7.798l27.172,22.088c2.128,1.73,2.451,4.857,0.723,6.986
                c-1.73,2.129-4.859,2.453-6.987,0.723L13.502,18.083 M41.381,31.99c-0.729-0.592-1.797-0.481-2.387,0.245
                c-0.592,0.729-0.48,1.797,0.246,2.389c0.728,0.59,1.798,0.48,2.389-0.248C42.221,33.649,42.108,32.581,41.381,31.99z"/>
            <path d="M16.589,8.306C17.058,8.687,43.522,30.2,43.522,30.2c1.107,0.9,1.683,2.218,1.683,3.545c0,1.011-0.333,2.028-1.019,2.872
                c-0.769,0.945-1.86,1.536-3.073,1.661c-1.212,0.125-2.399-0.229-3.344-0.998L13.758,17.769c0,0,0.648-2.414,1.296-4.827
                c-0.903,2.728-1.807,5.456-1.807,5.456l24.01,19.511c1.113,0.904,2.512,1.321,3.938,1.175c1.428-0.147,2.713-0.843,3.619-1.956
                c1.866-2.299,1.516-5.688-0.781-7.557L16.861,7.483C16.861,7.483,16.627,8.191,16.589,8.306z M15.054,12.942
                c0.768-2.318,1.321-3.99,1.535-4.636c-0.004-0.003-0.238-0.194-0.238-0.194S15.702,10.527,15.054,12.942z"/>
            <path d="M40.093,31.216c-0.559,0.058-1.06,0.329-1.413,0.765c-0.73,0.898-0.594,2.226,0.305,2.958
                c0.902,0.73,2.229,0.593,2.959-0.308c0.354-0.434,0.517-0.979,0.459-1.537c-0.058-0.559-0.329-1.062-0.766-1.418l0,0
                C41.2,31.321,40.652,31.158,40.093,31.216z M39.496,34.31c-0.552-0.449-0.636-1.266-0.187-1.818
                c0.217-0.268,0.524-0.435,0.867-0.47c0.344-0.036,0.681,0.064,0.949,0.283s0.437,0.528,0.472,0.872
                c0.005,0.045,0.007,0.09,0.007,0.134c0,0.295-0.101,0.578-0.289,0.81C40.866,34.674,40.05,34.759,39.496,34.31z"/>
        </g>
        <g>
            <path fill="#68A539" enable-background="new    " d="M8.692,5.163l1.749,4.966l-4.009,3.674l-5.85-1.48
                c0.889,3.116,3.372,5.768,6.74,6.625c5.036,1.28,10.159-1.767,11.441-6.802c1.279-5.039-1.767-10.161-6.805-11.443
                C8.39-0.205,4.817,1.013,2.558,3.619L8.692,5.163z"/>
            <path d="M2.252,3.354L1.821,3.851c0,0,6.168,1.553,6.562,1.652c0.125,0.357,1.435,4.073,1.588,4.508
                c-0.342,0.313-3.369,3.087-3.65,3.346C5.926,13.257,0,11.757,0,11.757l0.193,0.676c0.971,3.403,3.665,6.05,7.03,6.906
                c5.245,1.333,10.598-1.85,11.934-7.095c1.332-5.247-1.852-10.601-7.098-11.936C8.435-0.611,4.677,0.555,2.252,3.354z M11.86,1.095
                c4.812,1.225,7.734,6.137,6.512,10.951c-1.226,4.812-6.137,7.732-10.949,6.509c-2.84-0.723-5.099-2.87-6.146-5.639
                c1.185,0.3,5.268,1.333,5.268,1.333l4.367-4.003l-1.91-5.423c0,0-4.502-1.133-5.625-1.416C5.598,1.218,8.767,0.309,11.86,1.095z"
                />
        </g>
        <g>
            <rect x="4.988" y="16.305" transform="matrix(-0.5682 -0.8229 0.8229 -0.5682 -0.5549 32.8182)" width="6.689" height="0.5"/>
        </g>
        <g>
            <g>
                
                    <rect x="13.077" y="9.878" transform="matrix(-0.2271 0.9739 -0.9739 -0.2271 32.1893 -1.217)" fill="#68A539" enable-background="new    " width="7.002" height="4.574"/>
                <path d="M14.75,8.145l-1.682,7.213l5.244,1.222l1.774-7.608L14.842,7.75L14.75,8.145z M15.447,8.723
                    c0.592,0.138,3.075,0.716,3.667,0.854c-0.153,0.657-1.253,5.373-1.406,6.03c-0.591-0.138-3.074-0.717-3.666-0.854
                    C14.195,14.096,15.294,9.38,15.447,8.723z"/>
            </g>
            <g>
                <line fill="#68A539" enable-background="new    " x1="14.957" y1="9.821" x2="19.106" y2="10.803"/>
                <rect x="14.899" y="9.907" transform="matrix(-0.9731 -0.2303 0.2303 -0.9731 31.23 24.2694)" width="4.264" height="0.81"/>
            </g>
            <g>
                <line fill="#68A539" enable-background="new    " x1="14.627" y1="11.042" x2="18.901" y2="12.069"/>
                <rect x="14.567" y="11.15" transform="matrix(-0.9723 -0.2337 0.2337 -0.9723 30.3629 26.7092)" width="4.395" height="0.81"/>
            </g>
            <g>
                <line fill="#68A539" enable-background="new    " x1="14.3" y1="12.261" x2="18.674" y2="13.293"/>
                <rect x="14.24" y="12.372" transform="matrix(-0.9733 -0.2296 0.2296 -0.9733 29.6009 28.9981)" width="4.494" height="0.81"/>
            </g>
            <g>
                <line fill="#68A539" enable-background="new    " x1="13.973" y1="13.481" x2="18.303" y2="14.503"/>
                <rect x="13.914" y="13.587" transform="matrix(-0.9732 -0.2298 0.2298 -0.9732 28.6289 31.3186)" width="4.449" height="0.81"/>
            </g>
        </g>
    </g>
</svg>
