<?xml version="1.0" encoding="utf-8"?>
<!-- Generator: Adobe Illustrator 22.1.0, SVG Export Plug-In . SVG Version: 6.00 Build 0)  -->
<svg version="1.1" xmlns="http://www.w3.org/2000/svg" xmlns:xlink="http://www.w3.org/1999/xlink" x="0px" y="0px"
	 viewBox="0 0 48.1 46.5" style="enable-background:new 0 0 48.1 46.5;" xml:space="preserve">
<style type="text/css">
	.st0{stroke:#000000;stroke-miterlimit:10;}
	.st1{fill:#FEE851;}
</style>
<g id="Layer_1">
	<g>
		<path class="st0" d="M14.3,5c0,0,2.8,12.9,3.2,14.8c-1.2-0.9-4.9-3.8-4.9-3.8s1.8,5.4,2.1,6.2c-1,0-13.6,0-13.6,0L0.9,23
			c0,0,12.1,4.3,13.4,4.7c-1.1,0.8-11.6,9-11.6,9L3,37.4c0,0,11.4-3.6,12.8-4c-0.6,1.4-5,12.7-5,12.7l0.7,0.4c0,0,9.3-9.6,10.2-10.5
			c0.3,1,2,6.1,2,6.1s1.6-5.5,1.9-6.4c0.9,0.6,13.8,10.3,13.8,10.3l0.6-0.5c0,0-9.1-14.7-9.8-15.7c1.2-0.1,12.9-1.4,12.9-1.4
			l0.1-0.8c0,0-11.2-3.1-12.5-3.5c1-0.9,12.3-11.2,12.3-11.2l-0.4-0.7c0,0-13.7,6.2-14.8,6.7c0.1-1.1,0.4-7.1,0.4-7.1
			S24.6,17.1,24,18C23.4,17,15,4.7,15,4.7L14.3,5z"/>
	</g>
</g>
<g id="Layer_1_copy">
	<g>
		<polygon class="st1" points="25.8,31.2 15.2,42.2 20.5,28.7 6.9,33 19.1,23.6 5,18.6 19.2,18.6 17.4,13.1 22.1,16.8 18.7,0.9 
			28,14.7 31.7,9.2 31.3,15.4 46.7,8.4 33.9,20.2 47.1,23.8 33.5,25.3 43.6,41.5 29.3,30.9 27.7,36.7 		"/>
		<path d="M18.3,1c0,0,2.8,12.9,3.2,14.8c-1.2-0.9-4.9-3.8-4.9-3.8s1.8,5.4,2.1,6.2c-1,0-13.6,0-13.6,0L4.9,19
			c0,0,12.1,4.3,13.4,4.7c-1.1,0.8-11.6,9-11.6,9L7,33.4c0,0,11.4-3.6,12.8-4c-0.6,1.4-5,12.7-5,12.7l0.7,0.4c0,0,9.3-9.6,10.2-10.5
			c0.3,1,2,6.1,2,6.1s1.6-5.5,1.9-6.4c0.9,0.6,13.8,10.3,13.8,10.3l0.6-0.5c0,0-9.1-14.7-9.8-15.7c1.2-0.1,12.9-1.4,12.9-1.4
			l0.1-0.8c0,0-11.2-3.1-12.5-3.5C35.7,19.1,47,8.7,47,8.7l-0.4-0.7c0,0-13.7,6.2-14.8,6.7c0.1-1.1,0.4-7.1,0.4-7.1S28.6,13.1,28,14
			C27.4,13,19,0.7,19,0.7L18.3,1z M22.5,16.7c0,0-2.3-10.7-3-13.8C21.3,5.5,28,15.4,28,15.4s2.2-3.3,3.2-4.8
			c-0.1,1.7-0.3,5.4-0.3,5.4s10.3-4.7,13.7-6.2c-2.7,2.5-11.5,10.5-11.5,10.5s9,2.5,11.9,3.3C41.9,24,32.8,25,32.8,25
			s7.5,12.1,9.3,15c-2.6-2-13.1-9.7-13.1-9.7s-1,3.5-1.5,5c-0.5-1.5-1.6-4.9-1.6-4.9s-7.5,7.8-9.7,10c1.1-2.8,4.9-12.4,4.9-12.4
			S12,31,8.9,31.9c2.6-2,10.9-8.5,10.9-8.5S10.5,20.1,7.4,19c3.3,0,12.4,0,12.4,0s-1.1-3.3-1.6-4.8c1.3,1,4.6,3.5,4.6,3.5L22.5,16.7
			z"/>
	</g>
</g>
</svg>
